<svg width="442" height="414" viewBox="0 0 442 414" fill="none" xmlns="http://www.w3.org/2000/svg">
<path d="M174.285 136.236C199.455 109.407 242.135 109.415 267.303 136.236C286.145 156.315 313.394 167.816 342.057 167.816H364.096C376.579 167.816 386.352 156.588 382.723 144.454C361.881 74.7612 297.178 23.8175 220.794 23.8175C144.41 23.8175 79.7075 74.7612 58.865 144.454C55.2362 156.588 65.0095 167.816 77.4928 167.816H99.5305C128.195 167.816 155.444 156.315 174.285 136.236ZM1 192.794C1 71.7794 99.7732 -27 220.794 -27C341.809 -27 440.588 71.7732 440.588 192.794C440.588 313.809 341.817 412.588 220.794 412.588C99.7794 412.588 1 313.818 1 192.794ZM181.121 205.724C181.121 227.602 198.918 245.398 220.794 245.398C242.672 245.398 260.468 227.602 260.468 205.724C260.468 183.847 242.672 166.051 220.794 166.051C198.918 166.051 181.121 183.847 181.121 205.724ZM104.422 243.633C96.3466 243.633 89.4597 244.761 82.4589 246.733C71.5187 249.815 66.3319 262.225 71.6855 272.234C91.4202 309.129 124.449 337.889 164.333 352.069C170.648 354.315 177.684 351.14 179.605 344.624C180.622 341.174 181.404 337.646 181.937 334.063C181.967 333.993 181.989 333.919 182 333.842C189.172 286.111 152.095 243.633 104.422 243.633ZM259.651 334.062C260.178 337.604 260.955 341.133 261.988 344.626C263.914 351.139 270.949 354.311 277.264 352.066C317.144 337.886 350.169 309.127 369.902 272.235C375.26 262.218 370.027 249.927 359.123 246.766C357.966 246.43 356.863 246.129 355.808 245.862C302.57 232.332 251.232 278.226 259.588 333.842C259.6 333.919 259.621 333.993 259.651 334.062Z" stroke="url(#paint0_linear_2_4486)" stroke-opacity="0.2" stroke-width="1.76542"/>
<defs>
<linearGradient id="paint0_linear_2_4486" x1="220.638" y1="51.9909" x2="220.638" y2="329.812" gradientUnits="userSpaceOnUse">
<stop stop-color="#0C1316" stop-opacity="0.67"/>
<stop offset="1" stop-color="white" stop-opacity="0"/>
</linearGradient>
</defs>
</svg>
